<?xml version="1.0" encoding="UTF-8"?>
<svg width="182px" height="216px" viewBox="0 0 182 216" version="1.1" xmlns="http://www.w3.org/2000/svg" xmlns:xlink="http://www.w3.org/1999/xlink">
    <title>airSlate-icon</title>
    <g id="airSlate-icon" stroke="none" stroke-width="1" fill="none" fill-rule="evenodd">
        <g id="airSlate-icon-256-white" fill-rule="nonzero">
            <path d="M15.3799457,155.932003 C40.0997221,173.506078 66.0085877,183.344504 91.3965834,183.344504 C116.620049,183.344504 142.394412,173.574999 167.165695,156.090118 C169.200225,154.654039 172.014738,155.137724 173.452085,157.170458 C173.695162,157.514224 173.888837,157.890319 174.027465,158.287777 L181.664624,180.18423 C182.569025,182.777234 181.598292,185.652867 179.306786,187.168926 C178.879372,187.451703 178.50026,187.700328 178.169449,187.914801 C150.535688,205.830477 121.227987,216 91.3965834,216 C61.1497204,216 31.4415669,205.587539 3.60872821,187.283092 C3.33045892,187.100086 3.01632625,186.89145 2.66633019,186.657182 C0.397289336,185.138414 -0.56197812,182.282344 0.330795802,179.703491 L7.71158722,158.383476 C8.61948452,155.760938 11.4833455,154.370298 14.1081998,155.277394 C14.5611713,155.433932 14.9894186,155.654364 15.3799457,155.932003 Z" id="#Dodger-blue-500" fill="#2192EF"></path>
            <path d="M151,104.267696 C151,133.415701 127.450512,152 88.3976109,152 C76.2475571,152 64.8205326,150.414374 54.3798578,147.549355 C50.6965503,146.538622 45.8002224,144.775106 39.6908739,142.258808 C37.2768346,141.264527 36.0519875,138.57702 36.8906582,136.114704 L44.070895,115.033716 C44.950097,112.4524 47.7656457,111.069092 50.3595991,111.94401 C50.5435159,112.006044 50.7236124,112.078774 50.8989582,112.161825 C55.6592571,114.416498 59.2918764,116.025373 61.7968162,116.988448 C69.9830347,120.135808 77.9346451,121.873874 88.7901024,121.873874 C107.433447,121.873874 115.479522,116.005148 115.479522,106.810811 C115.479522,85.0965251 36,97.8120978 36,46.3629344 C36,21.5186615 53.4658703,0 97.0324232,0 C107.686661,0 119.160658,1.22574353 129.600041,3.46597354 C132.440406,4.07549907 136.111252,5.07487066 140.612579,6.46408831 C143.228564,7.27144475 144.691543,10.036279 143.880234,12.639519 C143.862909,12.6951112 143.844596,12.750394 143.825306,12.8053416 L136.625519,33.3130853 C135.754448,35.7942278 133.082176,37.1607241 130.547886,36.4209508 C124.590637,34.6819965 120.203324,33.4937092 117.385948,32.8560888 C111.21017,31.4584051 105.434646,30.7129987 98.2098976,30.7129987 C77.0153584,30.7129987 71.5204778,37.1685972 71.5204778,44.2110682 C71.5204778,65.7297297 151,51.8404118 151,104.267696 Z" id="#Slate-blue-1000" fill="#2C435C"></path>
        </g>
    </g>
</svg>